<svg width="63" height="63" viewBox="0 0 63 63" fill="none" xmlns="http://www.w3.org/2000/svg">
<path d="M15.75 36.75H36.75V31.5H15.75V36.75ZM15.75 28.875H47.25V23.625H15.75V28.875ZM15.75 21H47.25V15.75H15.75V21ZM5.25 57.75V10.5C5.25 9.05625 5.7645 7.81987 6.7935 6.79087C7.82075 5.76362 9.05625 5.25 10.5 5.25H52.5C53.9437 5.25 55.1801 5.76362 56.2091 6.79087C57.2364 7.81987 57.75 9.05625 57.75 10.5V42C57.75 43.4437 57.2364 44.6801 56.2091 45.7091C55.1801 46.7364 53.9437 47.25 52.5 47.25H15.75L5.25 57.75Z" fill="black"/>
</svg>
